<?xml version="1.0" encoding="utf-8"?>
<!-- Generator: Adobe Illustrator 23.1.0, SVG Export Plug-In . SVG Version: 6.00 Build 0)  -->
<svg version="1.1" id="logo" xmlns="http://www.w3.org/2000/svg" xmlns:xlink="http://www.w3.org/1999/xlink" x="0px" y="0px"
	 viewBox="0 0 980 180" style="enable-background:new 0 0 980 180;" xml:space="preserve">
<style type="text/css">
	.st0{fill:#1F9DD9;stroke:#1F9DD9;stroke-width:0.5;stroke-miterlimit:10;}
	.st1{fill:#29255C;stroke:#29255C;stroke-width:0.5;stroke-miterlimit:10;}
	.st2{fill:#1EA64A;stroke:#1EA64A;stroke-width:0.5;stroke-miterlimit:10;}
	.st3{fill:#F5CE31;stroke:#F5CE31;stroke-width:0.5;stroke-miterlimit:10;}
	.st4{clip-path:url(#SVGID_2_);fill:#1F9DD9;}
	.st5{clip-path:url(#SVGID_2_);fill:#F5CE31;}
	.st6{clip-path:url(#SVGID_2_);fill:#1EA64A;}
	
		.st7{clip-path:url(#SVGID_2_);fill:none;stroke:#92D4F4;stroke-width:10;stroke-linecap:round;stroke-linejoin:round;stroke-miterlimit:10;}
	.st8{fill:none;stroke:#29255C;stroke-width:3;stroke-miterlimit:10;}
</style>
<g>
	<path class="st0" d="M368,111.5c4.7,0,8.6-2,8.6-7.7v-1.9c0-0.7,0.1-1.6,0.1-1.6h-0.1c-1.8,2.7-4.4,4.3-8.5,4.3
		c-8.8,0-13.7-7.1-13.7-15.5c0-8.4,4.7-15.2,13.6-15.2c3.7,0,7.8,1.4,9.5,4.6h0.1c0,0-0.1-0.4-0.1-1c0-1.6,1.1-2.9,3.5-2.9h7.6v5.7
		h-2.9c-0.8,0-1.3,0.4-1.3,1.2v21.8c0,10.5-8.2,14.5-16.1,14.5c-3.8,0-7.9-1.1-10.9-2.6l2.3-5.6C359.5,109.4,363.3,111.5,368,111.5z
		 M376.8,89.1c0-7-3.5-8.8-7.6-8.8c-4.6,0-7.2,3.4-7.2,8.5c0,5.3,2.8,9.3,7.7,9.3C373.3,98.1,376.8,96,376.8,89.1z"/>
	<path class="st0" d="M407.9,73.8c8.8,0,13.6,6.4,13.6,14.5c0,0.9-0.2,2.6-0.2,2.6h-21.2c0.5,5.6,4.6,8.5,9.2,8.5
		c5,0,8.9-3.2,8.9-3.2l2.9,5.4c0,0-4.7,4.3-12.4,4.3c-10.1,0-16.4-7.3-16.4-16C392.4,80.4,398.8,73.8,407.9,73.8z M413.7,86.4
		c-0.1-4.2-2.7-6.7-5.9-6.7c-3.9,0-6.7,2.7-7.4,6.7H413.7z M410,62.6h8.3l-8.1,8.2h-6.7L410,62.6z"/>
	<path class="st0" d="M442.6,73.8c9.4,0,16.9,6.7,16.9,16c0,9.4-7.5,16-16.8,16c-9.4,0-16.9-6.6-16.9-16
		C425.8,80.4,433.3,73.8,442.6,73.8z M442.7,99.3c4.9,0,9.1-3.8,9.1-9.5c0-5.6-4.1-9.5-9.1-9.5c-5,0-9.1,3.9-9.1,9.5
		C433.6,95.5,437.7,99.3,442.7,99.3z"/>
	<path class="st1" d="M477.7,73.8c6.5,0,8.8,4.3,8.8,4.3h0.1c0,0-0.1-0.9-0.1-2.2v-7.7h-4.7v-5.7H494v35.6c0,0.9,0.5,1.3,1.3,1.3
		h2.8v5.7h-7.2c-2.8,0-3.9-1.5-3.9-3.2v-0.4c0-0.8,0.2-1.4,0.2-1.4h-0.1c0,0-2.4,5.7-10,5.7c-8.2,0-13.4-6.5-13.4-16
		C463.7,80.1,469.4,73.8,477.7,73.8z M478.9,99.4c4,0,7.7-2.9,7.7-9.4c0-5-2.5-9.7-7.5-9.7c-4.3,0-7.8,3.4-7.8,9.5
		C471.4,95.6,474.5,99.4,478.9,99.4z"/>
	<path class="st1" d="M518.9,86.2h1.9v-1c0-3.9-2.5-5.3-5.6-5.3c-4.6,0-8.6,2.9-8.6,2.9l-2.8-5.3c0,0,4.7-3.8,12.1-3.8
		c8.2,0,12.6,4.3,12.6,12.1v12.2c0,0.9,0.5,1.3,1.3,1.3h2.8v5.7h-7.2c-2.8,0-3.9-1.5-3.9-3.2v-0.4c0-1,0.2-1.6,0.2-1.6h-0.1
		c0,0-2.6,5.9-9.7,5.9c-5.2,0-10.1-3.1-10.1-9.3C501.7,87.2,514,86.2,518.9,86.2z M513.8,100.1c4.1,0,7.1-4.4,7.1-8.3v-1h-1.3
		c-3,0-10.3,0.5-10.3,5.1C509.3,98.2,511,100.1,513.8,100.1z"/>
	<path class="st1" d="M539.3,80.2h-4.7v-5.7h4.9v-8.3h7.4v8.3h7v5.7h-7v12.9c0,5.2,4,5.9,6.1,5.9c0.8,0,1.4-0.1,1.4-0.1v6.2
		c0,0-1,0.2-2.3,0.2c-4.3,0-12.8-1.3-12.8-11.5V80.2z"/>
	<path class="st1" d="M575.2,86.2h1.9v-1c0-3.9-2.5-5.3-5.6-5.3c-4.6,0-8.6,2.9-8.6,2.9l-2.8-5.3c0,0,4.7-3.8,12.1-3.8
		c8.2,0,12.6,4.3,12.6,12.1v12.2c0,0.9,0.5,1.3,1.3,1.3h2.8v5.7h-7.2c-2.8,0-3.9-1.5-3.9-3.2v-0.4c0-1,0.2-1.6,0.2-1.6h-0.1
		c0,0-2.6,5.9-9.7,5.9c-5.2,0-10.1-3.1-10.1-9.3C558,87.2,570.3,86.2,575.2,86.2z M570.1,100.1c4.1,0,7.1-4.4,7.1-8.3v-1h-1.3
		c-3,0-10.3,0.5-10.3,5.1C565.7,98.2,567.3,100.1,570.1,100.1z"/>
	<path class="st2" d="M594.4,97.4h7.6v7.7h-7.6V97.4z"/>
	<path class="st3" d="M624.7,73.8c5.1,0,12.5,1.9,12.5,7.3v4.2h-6.6v-2c0-2-3.1-3-5.7-3c-5.6,0-9,3.8-9,9.4c0,6.3,4.4,9.7,9.6,9.7
		c4.3,0,7.9-2.4,9.5-3.7l2.7,5.4c-2.1,2-6.8,4.7-12.7,4.7c-8.9,0-16.9-6.1-16.9-16C608.3,80.7,615.3,73.8,624.7,73.8z"/>
	<path class="st3" d="M640.3,74.5H655v5.7h-3.4l5.3,15.1c0.6,1.6,0.8,3.4,0.8,3.4h0.2c0,0,0.2-1.8,0.7-3.4l5.3-15.1h-3.5v-5.7h14.7
		v5.7h-3.7l-9.4,24.9h-8.8L644,80.2h-3.7V74.5z"/>
	<path class="st3" d="M680.2,68.2h-4.7v-5.7h12.3v32.4c0,2.8,0.6,4.2,3.1,4.2c0.8,0,1.4-0.1,1.4-0.1v6.1c0,0-1.3,0.2-2.8,0.2
		c-4.9,0-9.4-1.6-9.4-10V68.2z"/>
	<g>
		<defs>
			<rect id="SVGID_1_" x="287.2" y="65.8" width="51" height="51"/>
		</defs>
		<clipPath id="SVGID_2_">
			<use xlink:href="#SVGID_1_"  style="overflow:visible;"/>
		</clipPath>
		<polygon class="st4" points="300.3,65.8 300.3,70.8 303.5,84.4 312.7,93.7 314.3,96.3 325.8,100.2 334.5,103.2 338.2,104.6 
			338.2,88 338.2,72.2 337.1,68.3 334,65.8 317.7,65.8 		"/>
		<path class="st5" d="M308.1,77.1"/>
		<path class="st5" d="M302.1,64.9c-6.9-0.5-9.3-0.1-11.7,0.9l-3.1,4.1v25v13l9.4-6.7l8.4-6.6l6.2-3.3c0.7-0.4,1.4-0.7,2.1-1.1
			C315.3,78,305.1,80.8,302.1,64.9z"/>
		<polygon class="st6" points="288.6,107 308.3,93.6 314.1,91.8 320.7,91.8 324.2,94.1 331.5,97.6 334.9,101 340.3,109.6 338.2,112 
			335.7,116.1 331.5,116.8 300.5,117.5 290,116.8 288,114 287.2,112 286.4,108.9 		"/>
		<path class="st7" d="M281.3,111.3c53.2-44.2,60.2-1.5,60.2-1.5"/>
	</g>
	<path class="st8" d="M338.2,110.8c0,3.3-2.7,6-6,6h-39c-3.3,0-6-2.7-6-6v-39c0-3.3,2.7-6,6-6h39c3.3,0,6,2.7,6,6V110.8z"/>
</g>
</svg>
