<?xml version="1.0" encoding="utf-8"?>
<!-- Generator: Adobe Illustrator 23.1.0, SVG Export Plug-In . SVG Version: 6.00 Build 0)  -->
<svg version="1.1" id="logo" xmlns="http://www.w3.org/2000/svg" xmlns:xlink="http://www.w3.org/1999/xlink" x="0px" y="0px"
	 viewBox="0 0 980 180" style="enable-background:new 0 0 980 180;" xml:space="preserve">
<style type="text/css">
	.st0{fill:#1F9DD9;stroke:#1F9DD9;stroke-width:0.5;stroke-miterlimit:10;}
	.st1{fill:#29255C;stroke:#29255C;stroke-width:0.5;stroke-miterlimit:10;}
	.st2{fill:#1EA64A;stroke:#1EA64A;stroke-width:0.5;stroke-miterlimit:10;}
	.st3{fill:#F5CE31;stroke:#F5CE31;stroke-width:0.5;stroke-miterlimit:10;}
	.st4{clip-path:url(#SVGID_2_);fill:#1F9DD9;}
	.st5{clip-path:url(#SVGID_2_);fill:#F5CE31;}
	.st6{clip-path:url(#SVGID_2_);fill:#1EA64A;}
	
		.st7{clip-path:url(#SVGID_2_);fill:none;stroke:#92D4F4;stroke-width:10;stroke-linecap:round;stroke-linejoin:round;stroke-miterlimit:10;}
	.st8{fill:none;stroke:#29255C;stroke-width:3;stroke-miterlimit:10;}
</style>
<path class="st0" d="M375.8,111.5c4.7,0,8.6-2,8.6-7.7v-1.9c0-0.7,0.1-1.6,0.1-1.6h-0.1c-1.8,2.7-4.4,4.3-8.5,4.3
	c-8.8,0-13.7-7.1-13.7-15.5c0-8.4,4.7-15.2,13.6-15.2c3.7,0,7.8,1.4,9.5,4.6h0.1c0,0-0.1-0.4-0.1-1c0-1.6,1.1-2.9,3.5-2.9h7.6v5.7
	h-2.9c-0.8,0-1.3,0.4-1.3,1.2v21.8c0,10.5-8.2,14.5-16.1,14.5c-3.8,0-7.9-1.1-10.9-2.6l2.3-5.6C367.3,109.4,371.1,111.5,375.8,111.5
	z M384.6,89.1c0-7-3.5-8.8-7.6-8.8c-4.6,0-7.2,3.4-7.2,8.5c0,5.3,2.8,9.3,7.7,9.3C381.1,98.1,384.6,96,384.6,89.1z"/>
<path class="st0" d="M415.7,73.8c8.8,0,13.6,6.4,13.6,14.5c0,0.9-0.2,2.6-0.2,2.6H408c0.5,5.6,4.6,8.5,9.2,8.5c5,0,8.9-3.2,8.9-3.2
	l2.9,5.4c0,0-4.7,4.3-12.4,4.3c-10.1,0-16.4-7.3-16.4-16C400.2,80.4,406.5,73.8,415.7,73.8z M421.5,86.4c-0.1-4.2-2.7-6.7-5.9-6.7
	c-3.9,0-6.7,2.7-7.4,6.7H421.5z M417.8,62.6h8.3l-8.1,8.2h-6.7L417.8,62.6z"/>
<path class="st0" d="M450.4,73.8c9.4,0,16.9,6.7,16.9,16c0,9.4-7.5,16-16.8,16c-9.4,0-16.9-6.6-16.9-16
	C433.6,80.4,441.1,73.8,450.4,73.8z M450.5,99.3c4.9,0,9.1-3.8,9.1-9.5c0-5.6-4.1-9.5-9.1-9.5c-5,0-9.1,3.9-9.1,9.5
	C441.3,95.5,445.5,99.3,450.5,99.3z"/>
<path class="st1" d="M485.4,73.8c6.5,0,8.8,4.3,8.8,4.3h0.1c0,0-0.1-0.9-0.1-2.2v-7.7h-4.7v-5.7h12.3v35.6c0,0.9,0.5,1.3,1.3,1.3
	h2.8v5.7h-7.2c-2.8,0-3.9-1.5-3.9-3.2v-0.4c0-0.8,0.2-1.4,0.2-1.4h-0.1c0,0-2.4,5.7-10,5.7c-8.2,0-13.4-6.5-13.4-16
	C471.5,80.1,477.2,73.8,485.4,73.8z M486.7,99.4c4,0,7.7-2.9,7.7-9.4c0-5-2.5-9.7-7.5-9.7c-4.3,0-7.8,3.4-7.8,9.5
	C479.1,95.6,482.3,99.4,486.7,99.4z"/>
<path class="st1" d="M526.7,86.2h1.9v-1c0-3.9-2.5-5.3-5.6-5.3c-4.6,0-8.6,2.9-8.6,2.9l-2.8-5.3c0,0,4.7-3.8,12.1-3.8
	c8.2,0,12.6,4.3,12.6,12.1v12.2c0,0.9,0.5,1.3,1.3,1.3h2.8v5.7h-7.2c-2.8,0-3.9-1.5-3.9-3.2v-0.4c0-1,0.2-1.6,0.2-1.6h-0.1
	c0,0-2.6,5.9-9.7,5.9c-5.2,0-10.1-3.1-10.1-9.3C509.4,87.2,521.7,86.2,526.7,86.2z M521.6,100.1c4.1,0,7.1-4.4,7.1-8.3v-1h-1.3
	c-3,0-10.3,0.5-10.3,5.1C517.1,98.2,518.7,100.1,521.6,100.1z"/>
<path class="st1" d="M547.1,80.2h-4.7v-5.7h4.9v-8.3h7.4v8.3h7v5.7h-7v12.9c0,5.2,4,5.9,6.1,5.9c0.8,0,1.4-0.1,1.4-0.1v6.2
	c0,0-1,0.2-2.3,0.2c-4.3,0-12.8-1.3-12.8-11.5V80.2z"/>
<path class="st1" d="M583,86.2h1.9v-1c0-3.9-2.5-5.3-5.6-5.3c-4.6,0-8.6,2.9-8.6,2.9l-2.8-5.3c0,0,4.7-3.8,12.1-3.8
	c8.2,0,12.6,4.3,12.6,12.1v12.2c0,0.9,0.5,1.3,1.3,1.3h2.8v5.7h-7.2c-2.8,0-3.9-1.5-3.9-3.2v-0.4c0-1,0.2-1.6,0.2-1.6h-0.1
	c0,0-2.6,5.9-9.7,5.9c-5.2,0-10.1-3.1-10.1-9.3C565.8,87.2,578.1,86.2,583,86.2z M577.9,100.1c4.1,0,7.1-4.4,7.1-8.3v-1h-1.3
	c-3,0-10.3,0.5-10.3,5.1C573.5,98.2,575.1,100.1,577.9,100.1z"/>
<path class="st2" d="M602.2,97.4h7.6v7.7h-7.6V97.4z"/>
<path class="st3" d="M632.5,73.8c5.1,0,12.5,1.9,12.5,7.3v4.2h-6.6v-2c0-2-3.1-3-5.7-3c-5.6,0-9,3.8-9,9.4c0,6.3,4.4,9.7,9.6,9.7
	c4.3,0,7.9-2.4,9.5-3.7l2.7,5.4c-2.1,2-6.8,4.7-12.7,4.7c-8.9,0-16.9-6.1-16.9-16C616.1,80.7,623.1,73.8,632.5,73.8z"/>
<path class="st3" d="M648.1,74.5h14.7v5.7h-3.4l5.3,15.1c0.6,1.6,0.8,3.4,0.8,3.4h0.2c0,0,0.2-1.8,0.7-3.4l5.3-15.1h-3.5v-5.7h14.7
	v5.7h-3.7l-9.4,24.9h-8.8l-9.3-24.9h-3.7V74.5z"/>
<path class="st3" d="M688,68.2h-4.7v-5.7h12.3v32.4c0,2.8,0.6,4.2,3.1,4.2c0.8,0,1.4-0.1,1.4-0.1v6.1c0,0-1.3,0.2-2.8,0.2
	c-4.9,0-9.4-1.6-9.4-10V68.2z"/>
<g>
	<defs>
		<rect id="SVGID_1_" x="295" y="65.8" width="51" height="51"/>
	</defs>
	<clipPath id="SVGID_2_">
		<use xlink:href="#SVGID_1_"  style="overflow:visible;"/>
	</clipPath>
	<polygon class="st4" points="308,65.8 308,70.8 311.2,84.4 320.5,93.7 322,96.3 333.6,100.2 342.2,103.2 346,104.6 346,88 
		346,72.2 344.9,68.3 341.8,65.8 325.5,65.8 	"/>
	<path class="st5" d="M315.9,77.1"/>
	<path class="st5" d="M309.8,64.9c-6.9-0.5-9.3-0.1-11.7,0.9l-3.1,4.1v25v13l9.4-6.7l8.4-6.6l6.2-3.3c0.7-0.4,1.4-0.7,2.1-1.1
		C323,78,312.8,80.8,309.8,64.9z"/>
	<polygon class="st6" points="296.4,107 316,93.6 321.9,91.8 328.5,91.8 332,94.1 339.3,97.6 342.7,101 348.1,109.6 346,112 
		343.5,116.1 339.3,116.8 308.3,117.5 297.8,116.8 295.7,114 295,112 294.2,108.9 	"/>
	<path class="st7" d="M289.1,111.3c53.2-44.2,60.2-1.5,60.2-1.5"/>
</g>
<path class="st8" d="M346,110.8c0,3.3-2.7,6-6,6h-39c-3.3,0-6-2.7-6-6v-39c0-3.3,2.7-6,6-6h39c3.3,0,6,2.7,6,6V110.8z"/>
</svg>
